<svg width="1584" height="396" viewBox="0 0 1584 396" fill="none" xmlns="http://www.w3.org/2000/svg">
<rect width="1584" height="396" fill="#F5F5F5"/>
<g id="Awesome banner" clip-path="url(#clip0_0_1)">
<rect width="1584" height="396" fill="url(#paint0_linear_0_1)"/>
<ellipse id="Ellipse 2" cx="323" cy="64" rx="285" ry="288" fill="url(#paint1_linear_0_1)" fill-opacity="0.1"/>
<g id="copyright">
<path d="M75.95 334.52L72.30 334.52L72.30 311.16L77.20 311.16L83.70 330.04Q83.60 329.02 83.50 327.62Q83.41 326.23 83.33 324.79Q83.25 323.35 83.25 322.23L83.25 311.16L86.90 311.16L86.90 334.52L82 334.52L75.57 315.64Q75.63 316.57 75.73 317.88Q75.82 319.19 75.89 320.57Q75.95 321.94 75.95 323.10L75.95 334.52M98.80 334.84Q96.46 334.84 94.67 333.96Q92.88 333.08 91.89 331.53Q90.90 329.98 90.90 327.93Q90.90 325.78 92.13 324.18Q93.36 322.58 95.34 322.17L95.34 322.10Q93.65 321.75 92.61 320.38Q91.57 319 91.57 317.11Q91.57 315.26 92.48 313.85Q93.39 312.44 95.02 311.64Q96.66 310.84 98.80 310.84Q100.94 310.84 102.59 311.64Q104.24 312.44 105.15 313.85Q106.06 315.26 106.06 317.11Q106.06 319 105.01 320.38Q103.95 321.75 102.26 322.10L102.26 322.17Q104.24 322.58 105.47 324.18Q106.70 325.78 106.70 327.93Q106.70 329.98 105.71 331.53Q104.72 333.08 102.93 333.96Q101.14 334.84 98.80 334.84M98.80 320.73Q100.30 320.73 101.23 319.82Q102.16 318.90 102.16 317.46Q102.16 315.99 101.23 315.08Q100.30 314.17 98.80 314.17Q97.30 314.17 96.37 315.08Q95.44 315.99 95.44 317.46Q95.44 318.90 96.37 319.82Q97.30 320.73 98.80 320.73M98.80 331.45Q100.56 331.45 101.68 330.42Q102.80 329.40 102.80 327.74Q102.80 326.04 101.68 325Q100.56 323.96 98.80 323.96Q97.04 323.96 95.92 325Q94.80 326.04 94.80 327.74Q94.80 329.40 95.92 330.42Q97.04 331.45 98.80 331.45M114.35 334.52L110.70 334.52L110.70 311.16L115.60 311.16L122.10 330.04Q122 329.02 121.90 327.62Q121.81 326.23 121.73 324.79Q121.65 323.35 121.65 322.23L121.65 311.16L125.30 311.16L125.30 334.52L120.40 334.52L113.97 315.64Q114.03 316.57 114.13 317.88Q114.22 319.19 114.29 320.57Q114.35 321.94 114.35 323.10" fill="white" fill-opacity="0.9"/>
<path d="M161.48 325.24L151.24 325.24L151.24 322.68L161.48 322.68" fill="white" fill-opacity="0.9"/>
<path d="M195.02 334.84Q191.82 334.84 189.96 333.05Q188.11 331.26 188.11 328.12L188.11 317.56Q188.11 314.42 189.96 312.63Q191.82 310.84 195.02 310.84Q198.15 310.84 200.01 312.65Q201.87 314.46 201.87 317.56L198.99 317.56Q198.99 315.58 197.95 314.50Q196.91 313.43 195.02 313.43Q193.13 313.43 192.06 314.50Q190.99 315.58 190.99 317.56L190.99 328.12Q190.99 330.10 192.06 331.18Q193.13 332.25 195.02 332.25Q196.91 332.25 197.95 331.18Q198.99 330.10 198.99 328.12L201.87 328.12Q201.87 331.22 200.01 333.03Q198.15 334.84 195.02 334.84" fill="white" fill-opacity="0.9"/>
<path d="M213.96 334.84Q210.83 334.84 209 333.02Q207.18 331.19 207.18 327.80L207.18 317.88Q207.18 314.49 209 312.66Q210.83 310.84 213.96 310.84Q217.10 310.84 218.92 312.66Q220.75 314.49 220.75 317.85L220.75 327.80Q220.75 331.19 218.92 333.02Q217.10 334.84 213.96 334.84M213.96 332.25Q215.85 332.25 216.86 331.18Q217.87 330.10 217.87 328.12L217.87 317.56Q217.87 315.58 216.86 314.50Q215.85 313.43 213.96 313.43Q212.11 313.43 211.08 314.50Q210.06 315.58 210.06 317.56L210.06 328.12Q210.06 330.10 211.08 331.18Q212.11 332.25 213.96 332.25" fill="white" fill-opacity="0.9"/>
<path d="M228.65 334.52L225.87 334.52L225.87 311.16L230.12 311.16L233.10 321.27L236.20 311.16L240.46 311.16L240.46 334.52L237.67 334.52L237.67 323.48Q237.67 321.91 237.72 319.88Q237.77 317.85 237.87 315.77Q237.96 313.69 238.09 312.02L234.31 324.09L231.82 324.09L228.20 312.31Q228.46 314.68 228.55 317.50Q228.65 320.31 228.65 323.48" fill="white" fill-opacity="0.9"/>
<path d="M247.85 334.52L245.07 334.52L245.07 311.16L249.32 311.16L252.30 321.27L255.40 311.16L259.66 311.16L259.66 334.52L256.87 334.52L256.87 323.48Q256.87 321.91 256.92 319.88Q256.97 317.85 257.07 315.77Q257.16 313.69 257.29 312.02L253.51 324.09L251.02 324.09L247.40 312.31Q247.66 314.68 247.75 317.50Q247.85 320.31 247.85 323.48" fill="white" fill-opacity="0.9"/>
<path d="M271.56 334.84Q268.30 334.84 266.57 333.03Q264.84 331.22 264.84 328.12L264.84 311.16L267.72 311.16L267.72 328.12Q267.72 330.04 268.67 331.16Q269.61 332.28 271.56 332.28Q273.48 332.28 274.44 331.16Q275.40 330.04 275.40 328.12L275.40 311.16L278.28 311.16L278.28 328.12Q278.28 331.26 276.57 333.05Q274.86 334.84 271.56 334.84" fill="white" fill-opacity="0.9"/>
<path d="M286.83 334.52L284.04 334.52L284.04 311.16L287.88 311.16L295.02 331.16Q294.95 330.36 294.87 329.19Q294.79 328.02 294.75 326.73Q294.70 325.43 294.70 324.28L294.70 311.16L297.48 311.16L297.48 334.52L293.64 334.52L286.54 314.52Q286.60 315.29 286.67 316.46Q286.73 317.62 286.78 318.92Q286.83 320.22 286.83 321.40" fill="white" fill-opacity="0.9"/>
<path d="M316.20 334.52L303.72 334.52L303.72 331.90L308.49 331.90L308.49 313.78L303.72 313.78L303.72 311.16L316.20 311.16L316.20 313.78L311.43 313.78L311.43 331.90L316.20 331.90" fill="white" fill-opacity="0.9"/>
<path d="M330.60 334.52L327.72 334.52L327.72 313.78L321.32 313.78L321.32 311.16L337 311.16L337 313.78L330.60 313.78" fill="white" fill-opacity="0.9"/>
<path d="M349.80 334.52L346.92 334.52L346.92 325.78L339.88 311.16L342.95 311.16L347.50 320.76Q347.88 321.56 348.11 322.12Q348.33 322.68 348.39 322.94Q348.46 322.68 348.70 322.12Q348.94 321.56 349.32 320.76L353.87 311.16L356.84 311.16L349.80 325.78" fill="white" fill-opacity="0.9"/>
<path d="M382.83 334.52L380.04 334.52L380.04 311.16L383.88 311.16L391.02 331.16Q390.95 330.36 390.87 329.19Q390.79 328.02 390.75 326.73Q390.70 325.43 390.70 324.28L390.70 311.16L393.48 311.16L393.48 334.52L389.64 334.52L382.54 314.52Q382.60 315.29 382.67 316.46Q382.73 317.62 382.78 318.92Q382.83 320.22 382.83 321.40" fill="white" fill-opacity="0.9"/>
<path d="M405.96 334.84Q402.83 334.84 401 333.02Q399.18 331.19 399.18 327.80L399.18 317.88Q399.18 314.49 401 312.66Q402.83 310.84 405.96 310.84Q409.10 310.84 410.92 312.66Q412.75 314.49 412.75 317.85L412.75 327.80Q412.75 331.19 410.92 333.02Q409.10 334.84 405.96 334.84M405.96 332.25Q407.85 332.25 408.86 331.18Q409.87 330.10 409.87 328.12L409.87 317.56Q409.87 315.58 408.86 314.50Q407.85 313.43 405.96 313.43Q404.11 313.43 403.08 314.50Q402.06 315.58 402.06 317.56L402.06 328.12Q402.06 330.10 403.08 331.18Q404.11 332.25 405.96 332.25" fill="white" fill-opacity="0.9"/>
<path d="M424.55 334.52L418.51 334.52L418.51 311.16L424.55 311.16Q426.83 311.16 428.47 312.02Q430.12 312.89 431.03 314.46Q431.95 316.02 431.95 318.17L431.95 327.48Q431.95 329.62 431.03 331.21Q430.12 332.79 428.47 333.66Q426.83 334.52 424.55 334.52M421.39 313.72L421.39 331.96L424.55 331.96Q426.67 331.96 427.87 330.78Q429.07 329.59 429.07 327.48L429.07 318.17Q429.07 316.09 427.87 314.90Q426.67 313.72 424.55 313.72" fill="white" fill-opacity="0.9"/>
<path d="M451.40 334.52L437.96 334.52L437.96 311.16L451.40 311.16L451.40 313.78L440.81 313.78L440.81 321.02L450.28 321.02L450.28 323.58L440.81 323.58L440.81 331.90L451.40 331.90" fill="white" fill-opacity="0.9"/>
<path d="M463.69 334.84Q460.30 334.84 458.28 333.05Q456.27 331.26 456.27 328.12L459.15 328.12Q459.15 330.07 460.39 331.18Q461.64 332.28 463.69 332.28Q465.67 332.28 466.86 331.13Q468.04 329.98 468.04 328.12Q468.04 326.71 467.29 325.67Q466.54 324.63 465.13 324.25L461.58 323.26Q459.37 322.62 458.11 320.97Q456.84 319.32 456.84 317.08Q456.84 315.22 457.67 313.82Q458.51 312.41 460.01 311.62Q461.51 310.84 463.47 310.84Q465.45 310.84 466.97 311.62Q468.49 312.41 469.35 313.80Q470.22 315.19 470.22 317.02L467.34 317.02Q467.34 315.42 466.25 314.41Q465.16 313.40 463.47 313.40Q461.77 313.40 460.71 314.41Q459.66 315.42 459.66 317.02Q459.66 318.30 460.35 319.21Q461.03 320.12 462.28 320.47L465.93 321.50Q468.27 322.14 469.56 323.91Q470.86 325.69 470.86 328.12Q470.86 331.19 468.91 333.02Q466.95 334.84 463.69 334.84" fill="white" fill-opacity="0.9"/>
</g>
<path d="M75.28 197.64L72.57 197.64L70.48 180.12L72.47 180.12L73.84 193.08Q73.94 193.87 73.98 194.72Q74.03 195.58 74.06 196.08Q74.10 195.58 74.19 194.72Q74.27 193.87 74.37 193.08L76.10 180.12L78.42 180.12L80.01 193.08Q80.10 193.87 80.20 194.72Q80.30 195.58 80.34 196.08Q80.39 195.58 80.45 194.72Q80.51 193.87 80.61 193.08L82.02 180.12L83.92 180.12L81.78 197.64L79.07 197.64L77.49 184.44Q77.39 183.62 77.34 182.84Q77.30 182.06 77.25 181.63Q77.20 182.06 77.15 182.84Q77.10 183.62 76.98 184.44" fill="white" fill-opacity="0.7"/>
<path d="M91.60 197.88Q89.27 197.88 87.84 196.48Q86.42 195.07 86.42 192.60L86.42 189.48Q86.42 187.01 87.84 185.60Q89.27 184.20 91.60 184.20Q93.16 184.20 94.32 184.82Q95.49 185.45 96.14 186.58Q96.78 187.70 96.78 189.24L96.78 191.59L88.53 191.59L88.53 192.84Q88.53 194.30 89.37 195.16Q90.21 196.01 91.60 196.01Q92.80 196.01 93.58 195.54Q94.36 195.07 94.53 194.28L96.69 194.28Q96.47 195.94 95.08 196.91Q93.69 197.88 91.60 197.88M88.53 189.24L88.53 189.91L94.67 189.91L94.67 189.24Q94.67 187.68 93.87 186.83Q93.06 185.98 91.60 185.98Q90.14 185.98 89.33 186.83Q88.53 187.68 88.53 189.24" fill="white" fill-opacity="0.7"/>
<path d="MNaN 197.64L107.92 197.64Q106.17 197.64 105.12 196.62Q104.08 195.60 104.08 193.92L104.08 182.09L99.52 182.09L99.52 180.12L106.24 180.12L106.24 193.92Q106.24 194.74 106.70 195.20Q107.15 195.67 107.92 195.67LNaN 195.67" fill="white" fill-opacity="0.7"/>
<path d="M120.59 197.88Q118.19 197.88 116.75 196.54Q115.31 195.19 115.31 192.84L115.31 189.24Q115.31 186.89 116.75 185.54Q118.19 184.20 120.59 184.20Q122.87 184.20 124.28 185.42Q125.68 186.65 125.75 188.76L123.59 188.76Q123.52 187.49 122.73 186.80Q121.94 186.12 120.59 186.12Q119.18 186.12 118.32 186.92Q117.47 187.73 117.47 189.22L117.47 192.84Q117.47 194.33 118.32 195.14Q119.18 195.96 120.59 195.96Q121.94 195.96 122.73 195.26Q123.52 194.57 123.59 193.32L125.75 193.32Q125.68 195.43 124.28 196.66Q122.87 197.88 120.59 197.88" fill="white" fill-opacity="0.7"/>
<path d="M134.80 197.83Q132.42 197.83 131.02 196.44Q129.62 195.05 129.62 192.55L129.62 189.53Q129.62 187.01 131.01 185.63Q132.40 184.25 134.80 184.25Q137.20 184.25 138.59 185.63Q139.98 187.01 139.98 189.53L139.98 192.55Q139.98 195.05 138.58 196.44Q137.18 197.83 134.80 197.83M134.80 195.91Q136.22 195.91 137.02 195.12Q137.82 194.33 137.82 192.79L137.82 189.29Q137.82 187.75 137.02 186.96Q136.22 186.17 134.80 186.17Q133.41 186.17 132.59 186.96Q131.78 187.75 131.78 189.29L131.78 192.79Q131.78 194.33 132.59 195.12Q133.41 195.91 134.80 195.91" fill="white" fill-opacity="0.7"/>
<path d="M145.46 197.64L143.44 197.64L143.44 184.44L145.31 184.44L145.31 186.19L145.36 186.19Q145.48 185.30 146.07 184.75Q146.66 184.20 147.57 184.20Q148.43 184.20 149.03 184.70Q149.63 185.21 149.90 186.07L149.92 186.07Q150.09 185.21 150.68 184.70Q151.26 184.20 152.18 184.20Q153.45 184.20 154.20 185.15Q154.96 186.10 154.96 187.61L154.96 197.64L152.94 197.64L152.94 187.58Q152.94 186.79 152.56 186.32Q152.18 185.86 151.50 185.86Q150.86 185.86 150.47 186.31Q150.09 186.77 150.09 187.56L150.09 197.64L148.31 197.64L148.31 187.58Q148.31 186.79 147.93 186.32Q147.54 185.86 146.90 185.86Q146.22 185.86 145.84 186.31Q145.46 186.77 145.46 187.56" fill="white" fill-opacity="0.7"/>
<path d="M163.60 197.88Q161.27 197.88 159.84 196.48Q158.42 195.07 158.42 192.60L158.42 189.48Q158.42 187.01 159.84 185.60Q161.27 184.20 163.60 184.20Q165.16 184.20 166.32 184.82Q167.49 185.45 168.14 186.58Q168.78 187.70 168.78 189.24L168.78 191.59L160.53 191.59L160.53 192.84Q160.53 194.30 161.37 195.16Q162.21 196.01 163.60 196.01Q164.80 196.01 165.58 195.54Q166.36 195.07 166.53 194.28L168.69 194.28Q168.47 195.94 167.08 196.91Q165.69 197.88 163.60 197.88M160.53 189.24L160.53 189.91L166.67 189.91L166.67 189.24Q166.67 187.68 165.87 186.83Q165.06 185.98 163.60 185.98Q162.14 185.98 161.33 186.83Q160.53 187.68 160.53 189.24" fill="white" fill-opacity="0.7"/>
<path d="M178.98 192.48L177.02 192.48L176.73 180.12L179.27 180.12L178.98 192.48M178.36 197.76L177.64 197.76Q177.02 197.76 176.61 197.35Q176.20 196.94 176.20 196.32Q176.20 195.70 176.61 195.29Q177.02 194.88 177.64 194.88L178.36 194.88Q179.06 194.88 179.43 195.28Q179.80 195.67 179.80 196.30Q179.80 196.92 179.39 197.34Q178.98 197.76 178.36 197.76" fill="white" fill-opacity="0.7"/>
<path d="M97.14 136.06L84.37 136.06L66.42 65.98L76.21 65.98L87.82 113.21Q88.98 117.72 89.79 121.90Q90.61 126.08 90.99 128.28Q91.28 126.08 92.19 121.85Q93.10 117.63 94.16 113.12L105.39 65.98L115.18 65.98L97.14 136.06M153.20 136.06L143.70 136.06L143.70 74.62L124.69 74.62L124.69 65.98L172.11 65.98L172.11 74.62L153.20 74.62L153.20 136.06M227.31 136.06L186.51 136.06L186.51 65.98L227.31 65.98L227.31 74.52L195.92 74.52L195.92 95.36L223.95 95.36L223.95 103.61L195.92 103.61L195.92 127.52L227.31 127.52L227.31 136.06M248.82 136.06L238.35 136.06L258.32 100.44L239.41 65.98L250.26 65.98L260.62 85.95Q261.49 87.68 262.40 89.50Q263.31 91.32 263.79 92.28Q264.27 91.32 265.14 89.50Q266 87.68 266.86 85.95L277.33 65.98L287.79 65.98L268.88 99.96L288.85 136.06L278.10 136.06L266.58 114.56Q265.71 112.83 264.85 110.96Q263.98 109.08 263.50 107.93Q263.02 109.08 262.16 110.96Q261.30 112.83 260.34 114.46L248.82 136.06M402.99 136.06L362.29 136.06L362.29 65.98L371.79 65.98L371.79 127.42L402.99 127.42L402.99 136.06M455.50 136.06L417.30 136.06L417.30 127.42L431.60 127.42L431.60 74.62L417.30 74.62L417.30 65.98L455.50 65.98L455.50 74.62L441.20 74.62L441.20 127.42L455.50 127.42L455.50 136.06M494.77 137.02Q485.07 137.02 479.36 131.60Q473.65 126.17 473.65 116.67L473.65 85.28Q473.65 75.87 479.36 70.44Q485.07 65.02 494.77 65.02Q504.37 65.02 510.08 70.49Q515.79 75.96 515.79 85.28L506.29 85.28Q506.29 79.61 503.22 76.54Q500.14 73.47 494.77 73.47Q489.30 73.47 486.22 76.54Q483.15 79.61 483.15 85.28L483.15 116.67Q483.15 122.43 486.22 125.50Q489.30 128.57 494.77 128.57Q500.14 128.57 503.22 125.50Q506.29 122.43 506.29 116.67L515.79 116.67Q515.79 126.08 510.08 131.55Q504.37 137.02 494.77 137.02M572.91 136.06L532.11 136.06L532.11 65.98L572.91 65.98L572.91 74.52L541.52 74.52L541.52 95.36L569.55 95.36L569.55 103.61L541.52 103.61L541.52 127.52L572.91 127.52L572.91 136.06M597.58 136.06L588.66 136.06L588.66 65.98L600.94 65.98L621.87 125.12Q621.58 122.62 621.34 118.92Q621.10 115.23 620.96 111.24Q620.82 107.26 620.82 103.71L620.82 65.98L629.84 65.98L629.84 136.06L617.46 136.06L596.72 76.92Q596.91 79.42 597.10 83.02Q597.30 86.62 597.44 90.56Q597.58 94.49 597.58 97.95L597.58 136.06M667.18 137.02Q656.82 137.02 650.67 131.60Q644.53 126.17 644.53 116.67L654.03 116.67Q654.03 122.24 657.58 125.40Q661.14 128.57 667.18 128.57Q672.94 128.57 676.35 125.36Q679.76 122.14 679.76 116.76Q679.76 112.73 677.55 109.71Q675.34 106.68 671.31 105.63L660.94 102.84Q654.13 100.92 650.14 95.88Q646.16 90.84 646.16 83.93Q646.16 78.27 648.70 74Q651.25 69.72 655.86 67.37Q660.46 65.02 666.51 65.02Q672.66 65.02 677.31 67.37Q681.97 69.72 684.56 73.95Q687.15 78.17 687.15 83.74L677.74 83.74Q677.74 79.13 674.62 76.25Q671.50 73.37 666.51 73.37Q661.52 73.37 658.50 76.25Q655.47 79.13 655.47 83.74Q655.47 87.48 657.49 90.03Q659.50 92.57 663.15 93.63L673.81 96.51Q681.01 98.43 685.04 103.85Q689.07 109.28 689.07 116.76Q689.07 122.91 686.38 127.47Q683.70 132.03 678.75 134.52Q673.81 137.02 667.18 137.02M745.71 136.06L704.91 136.06L704.91 65.98L745.71 65.98L745.71 74.52L714.32 74.52L714.32 95.36L742.35 95.36L742.35 103.61L714.32 103.61L714.32 127.52L745.71 127.52L745.71 136.06M826.35 136.06L817.33 136.06L817.33 65.98L830.77 65.98L839.41 96.22L848.43 65.98L861.97 65.98L861.97 136.06L852.85 136.06L852.85 103.90Q852.85 98.81 853.04 92.62Q853.23 86.43 853.57 80.24Q853.90 74.04 854.29 69.05L843.34 104.96L835.28 104.96L824.72 69.92Q825.58 76.92 825.97 85.52Q826.35 94.11 826.35 103.90L826.35 136.06M882.51 136.06L872.82 136.06L890.96 65.98L903.54 65.98L921.58 136.06L911.89 136.06L907.47 117.82L886.93 117.82L882.51 136.06M893.94 88.92L888.85 109.95L905.55 109.95L900.56 89.02Q899.12 83.26 898.26 79.23Q897.39 75.20 897.20 73.76Q897.01 75.20 896.14 79.23Q895.28 83.26 893.94 88.92M943.18 136.06L934.26 136.06L934.26 65.98L946.54 65.98L967.47 125.12Q967.18 122.62 966.94 118.92Q966.70 115.23 966.56 111.24Q966.42 107.26 966.42 103.71L966.42 65.98L975.44 65.98L975.44 136.06L963.06 136.06L942.32 76.92Q942.51 79.42 942.70 83.02Q942.90 86.62 943.04 90.56Q943.18 94.49 943.18 97.95L943.18 136.06M997.71 136.06L988.02 136.06L1006.16 65.98L1018.74 65.98L1036.78 136.06L1027.09 136.06L1022.67 117.82L1002.13 117.82L997.71 136.06M1009.14 88.92L1004.05 109.95L1020.75 109.95L1015.76 89.02Q1014.32 83.26 1013.46 79.23Q1012.59 75.20 1012.40 73.76Q1012.21 75.20 1011.34 79.23Q1010.48 83.26 1009.14 88.92M1070.38 137.02Q1060.69 137.02 1054.98 131.60Q1049.26 126.17 1049.26 116.67L1049.26 85.28Q1049.26 75.87 1054.98 70.44Q1060.69 65.02 1070.38 65.02Q1079.98 65.02 1085.70 70.49Q1091.41 75.96 1091.41 85.28L1081.90 85.28Q1081.90 79.61 1078.83 76.54Q1075.76 73.47 1070.38 73.47Q1064.91 73.47 1061.84 76.54Q1058.77 79.61 1058.77 85.28L1058.77 116.67Q1058.77 122.43 1061.84 125.50Q1064.91 128.57 1070.38 128.57Q1075.76 128.57 1078.83 125.50Q1081.90 122.43 1081.90 116.67L1081.90 107.55L1068.27 107.55L1068.27 99.10L1091.41 99.10L1091.41 116.67Q1091.41 126.08 1085.70 131.55Q1079.98 137.02 1070.38 137.02M1148.91 136.06L1108.11 136.06L1108.11 65.98L1148.91 65.98L1148.91 74.52L1117.52 74.52L1117.52 95.36L1145.55 95.36L1145.55 103.61L1117.52 103.61L1117.52 127.52L1148.91 127.52L1148.91 136.06M1174.35 136.06L1164.94 136.06L1164.94 65.98L1186.64 65.98Q1193.07 65.98 1197.87 68.52Q1202.67 71.07 1205.36 75.63Q1208.05 80.19 1208.05 86.33Q1208.05 93.44 1204.45 98.52Q1200.85 103.61 1194.90 105.72L1209.01 136.06L1198.54 136.06L1185.20 106.78L1174.35 106.78L1174.35 136.06M1174.35 74.43L1174.35 98.33L1186.64 98.33Q1192.02 98.33 1195.14 95.07Q1198.26 91.80 1198.26 86.43Q1198.26 80.96 1195.09 77.69Q1191.92 74.43 1186.64 74.43L1174.35 74.43M1285.71 136.06L1276.02 136.06L1294.16 65.98L1306.74 65.98L1324.78 136.06L1315.09 136.06L1310.67 117.82L1290.13 117.82L1285.71 136.06M1297.14 88.92L1292.05 109.95L1308.75 109.95L1303.76 89.02Q1302.32 83.26 1301.46 79.23Q1300.59 75.20 1300.40 73.76Q1300.21 75.20 1299.34 79.23Q1298.48 83.26 1297.14 88.92M1347.15 136.06L1337.65 136.06L1337.65 65.98L1360.40 65.98Q1367.12 65.98 1372.02 68.57Q1376.91 71.16 1379.60 75.82Q1382.29 80.48 1382.29 86.91Q1382.29 93.24 1379.60 97.90Q1376.91 102.56 1371.97 105.15Q1367.02 107.74 1360.40 107.74L1347.15 107.74L1347.15 136.06M1347.15 74.43L1347.15 99.29L1360.40 99.29Q1365.97 99.29 1369.23 95.88Q1372.50 92.48 1372.50 86.91Q1372.50 81.24 1369.23 77.84Q1365.97 74.43 1360.40 74.43L1347.15 74.43M1434.70 136.06L1396.50 136.06L1396.50 127.42L1410.80 127.42L1410.80 74.62L1396.50 74.62L1396.50 65.98L1434.70 65.98L1434.70 74.62L1420.40 74.62L1420.40 127.42L1434.70 127.42" fill="url(#paint2_linear_0_1)"/>
<g id="Group 1">
<rect id="Rectangle 1" x="26" y="168" width="12" height="184" rx="5" fill="url(#paint3_linear_0_1)" fill-opacity="0.9"/>
</g>
<g id="Group 1_2">
<rect id="Rectangle 2" x="26" y="38" width="12" height="119" rx="5" fill="url(#paint4_linear_0_1)" fill-opacity="0.9"/>
</g>
<ellipse id="Ellipse 1" cx="148.5" cy="573" rx="215.5" ry="214" fill="url(#paint5_linear_0_1)" fill-opacity="0.4"/>
<rect id="Rectangle 3" x="1229" y="48" width="300" height="300" rx="25" fill="#FFFBFB" fill-opacity="0.9"/>
<g id="placeholder-logo"><g transform="translate(1229,48) translate(0.0,60.0) scale(1.2000)"><g fill="#666666">
  <path d="m88.05,27.65c-3.15,4 -3.2,51.2 -0.05,54.35c2.75,2.75 71.7,3.15 74.45,0.45c2.85,-2.9 2.3,-53.85 -0.65,-55.9c-1.95,-1.35 -7.15,-1.55 -36.95,-1.55l-34.7,0l-2.1,2.65zm69.45,3.35c0.65,0 1,8.6 1,23.75l0,23.75l-33,0l-33,0l-0.25,-23c-0.15,-12.6 -0.1,-23.45 0.15,-24.1c0.35,-0.85 8.9,-1.05 32.25,-0.75c17.55,0.2 32.3,0.35 32.85,0.35z"/>
  <path d="m99.15,37.3c-6.85,7.35 4.25,17.35 11.4,10.25c1.35,-1.35 2.45,-3.65 2.45,-5.05c0,-6.45 -9.35,-9.95 -13.85,-5.2z"/>
  <path d="m135,42.5c-0.7,0.85 -5.25,5.15 -10.1,9.6l-8.85,8.1l-3.2,-3.2l-3.15,-3.15l-6.35,6.3c-5.55,5.5 -6.35,6.75 -6.35,10.05l0,3.8l28.5,0l28.5,0l0,-8.6l0,-8.55l-8.15,-7.7c-9.35,-8.85 -9.15,-8.7 -10.85,-6.65zm7.25,15.2c0.95,0.9 1.75,2.9 1.75,4.45c6.35,-5.05 4.75,-7.15 4.9,-11.55c0.95,0 0,0 0,0l-6.65,7.1z"/>
  <path d="m53.65,110.75c0.1,4.8 0.45,8.65 0.75,8.5c0.35,-0.15 1.3,-0.25 2.1,-0.25c1.1,0 1.5,-1.2 1.5,-4.75l0,-4.75l3.25,5c4.9,7.5 6.2,6.75 6.55,-3.75c0.25,-8.15 0.15,-8.75 -1.7,-8.75c-1.65,0 -2.05,0.8 -2.3,4.75l-0.3,4.75l-2.8,-4.75c-4.85,-8.25 -7.25,-6.9 -7.05,4z"/>
  <path d="m91,108.9c0,9.65 0.3,10.1 6.1,10.1c5.8,0 7.15,-2.65 1.65,-3.2l-3.25,-0.3l-0.3,-6.75c-0.25,-5.95 -0.55,-6.75 -2.25,-6.75c-1.75,0 -1.95,0.7 -1.95,6.9z"/>
  <path d="m151,102.45c0,0.25 1,2.15 2.25,4.2c1.2,2.1 2.45,5.8 2.75,8.25c0.65,5.9 4,6.95 4,1.25c0.05,-2.1 1.25,-5.85 2.95,-8.9l2.9,-5.25l-2.5,0c-1.8,0 -2.8,0.85 -3.75,3.1l-1.3,3.05l-1.25,-3.05c-1.1,-2.6 -6.05,-4.8 -6.05,-2.65z"/>
  <path d="m191,107.45c0,9.05 3.4,8.85 4.25,-0.2c0.45,-5 0.35,-5.25 -1.9,-5.25c-2.2,0 -2.35,0.4 -2.35,5.45z"/>
  <path d="m180.8,104.75c-1.3,5.35 0.65,13.6 3.45,14.35c2.3,0.6 2.75,0.4 2.75,-1.2c0,-1.05 -0.45,-1.9 -1,-1.9c-0.55,0 -1,-1.6 -1,-3.5c0,-1.95 0.45,-3.5 1,-3.5c0.55,0 1,-0.7 1,-1.5c0,-0.85 -0.45,-1.5 -1,-1.5c-0.55,0 -1,-0.7 -1,-1.5c0,-2.1 -3.65,-1.9 -4.2,0.25z"/>
  <path d="m71.55,106.55c-2.2,2.25 -2.05,9.7 0.3,11.8c4.5,4.1 10.15,0.75 10.15,-6.1c0,-4.85 -2,-7.25 -6,-7.25c-1.55,0 -3.55,0.7 -4.45,1.55zm6.25,5.8c0.25,3.05 0,3.65 -1.6,3.65c-2.3,0 -3.25,-2.65 -2.05,-5.85c1.25,-3.35 3.3,-2.1 3.65,2.2z"/>
  <path d="m105.75,106.1c-2.5,1.45 -2.45,9.95 0.1,12.25c4.3,3.9 10.15,0.35 10.15,-6.2c0,-6 -5.15,-9.05 -10.25,-6.05zm6.05,6.25c0.25,3.05 0,3.65 -1.6,3.65c-2.3,0 -3.25,-2.65 -2.05,-5.85c1.25,-3.35 3.3,-2.1 3.65,2.2z"/>
  <path d="m119.2,106.2c-3.8,3.8 -0.4,12.55 4.4,11.35c1.9,-0.45 2.45,-0.3 2.15,0.65c-0.25,0.7 -1.55,1.2 -2.85,1.1c-4.05,-0.3 -5.35,0.45 -3.85,2.25c0.85,1.05 2.6,1.45 5.35,1.25l4.1,-0.3l0.3,-8.75l0.3,-8.75l-4.35,0c-2.4,0 -4.9,0.55 -5.55,1.2zm6.6,4.45c0.4,2.85 -2.15,4.85 -3.75,2.95c-0.9,-1.1 -0.9,-2 -0.05,-3.6c1.35,-2.5 3.4,-2.15 3.8,0.65z"/>
  <path d="m133.55,106.55c-2.2,2.25 -2.05,9.7 0.3,11.8c4.5,4.1 10.15,0.75 10.15,-6.1c0,-4.85 -2,-7.25 -6,-7.25c-1.55,0 -3.55,0.7 -4.45,1.55zm6.25,5.8c0.25,3.05 0,3.65 -1.6,3.65c-2.3,0 -3.25,-2.65 -2.05,-5.85c1.25,-3.35 3.3,-2.1 3.65,2.2z"/>
  <path d="m167.65,106.85c-3.9,4.3 -0.75,13.15 4.7,13.15c2.4,0 5.65,-2.75 5.65,-4.85c0,-1.4 -2.65,-1.55 -3.5,-0.15c-0.95,1.55 -4.5,1.15 -4.5,-0.5c0,-1.1 1.1,-1.5 4,-1.5c3.15,0 4,-0.35 4,-1.8c0,-5.3 -6.85,-8.25 -10.35,-4.35z"/>
  <path d="m191,117.5c0,2.15 0.4,2.6 2.25,2.3c1.5,-0.2 2.25,-1 2.25,-2.3c0,-1.3 -0.75,-2.1 -2.25,-2.3c-1.85,-0.3 -2.25,0.15 -2.25,2.3z"/>
 </g></g></g>
</g>
<defs>
<linearGradient id="paint0_linear_0_1" x1="0" y1="198" x2="1584" y2="198" gradientUnits="userSpaceOnUse">
<stop stop-color="#3D052C"/>
<stop offset="1"/>
</linearGradient>
<linearGradient id="paint1_linear_0_1" x1="323" y1="-224" x2="323" y2="352" gradientUnits="userSpaceOnUse">
<stop stop-color="#28F6F2" stop-opacity="0.4"/>
<stop offset="1" stop-color="#17908E" stop-opacity="0.7"/>
</linearGradient>
<linearGradient id="paint2_linear_0_1" x1="148.5" y1="38" x2="148.5" y2="140" gradientUnits="userSpaceOnUse">
<stop stop-color="white"/>
<stop offset="1" stop-color="#999999"/>
</linearGradient>
<linearGradient id="paint3_linear_0_1" x1="38" y1="260" x2="26" y2="260" gradientUnits="userSpaceOnUse">
<stop stop-color="#D9D9D9"/>
<stop offset="1" stop-color="#737373"/>
</linearGradient>
<linearGradient id="paint4_linear_0_1" x1="38" y1="97.5" x2="26" y2="97.5" gradientUnits="userSpaceOnUse">
<stop stop-color="#D9D9D9"/>
<stop offset="1" stop-color="#737373"/>
</linearGradient>
<linearGradient id="paint5_linear_0_1" x1="27.5" y1="434.5" x2="148.5" y2="787" gradientUnits="userSpaceOnUse">
<stop stop-color="#2E21BC"/>
<stop offset="1" stop-color="#150F56"/>
</linearGradient>
<clipPath id="clip0_0_1">
<rect width="1584" height="396" fill="white"/>
</clipPath>
</defs>
</svg>
